<svg version="1.0" xmlns="http://www.w3.org/2000/svg" width="1365.333" height="1365.333" viewBox="0 0 1024 1024"><path d="M494 198.9c-38.9 8.5-69.6 40.4-76.1 79-1.7 9.7-1.4 29.3.5 37.8 6.6 30.2 29.4 57.7 57.3 69.3 14.7 6.1 21.2 7.3 39.3 7.3 13.7 0 17.8-.3 24.2-2.1 30-8.2 52.2-26.5 65.3-53.6 6.8-14.1 8.6-21.7 9.2-38.7.4-11.3.2-16.5-1.1-22.9-1.7-8.4-4.3-16-5.5-16-.3 0-23.1 22.5-50.6 50l-50 50-26.5-26.5-26.5-26.5 12.7-12.7 12.7-12.7 13.1 13.2c7.1 7.3 13.3 13.2 13.8 13.2.4-.1 18.7-17.8 40.7-39.5l40-39.5-5.4-5c-10.9-10.3-26.9-19.2-41.8-23.1-11.3-3.1-33.7-3.6-45.3-1zM779.9 212.9c-1.4.5-3.6 1.4-5 2.1-4.2 2.2-57.9 56.3-59.5 59.9-2.1 5-1.8 11.7.8 16.3 4.4 7.8 15 11.1 22.4 7 5.1-2.7 58.3-55.1 60.6-59.6 2.7-5.2 2.1-13-1.3-18-3.9-5.8-12.4-9.4-18-7.7zM337.3 218.7c-4.9.3-7.3.8-7.3 1.6.1 1.2.8 2.1 11.3 14l5.9 6.6-4.5 5.3c-7.2 8.6-11.7 14.9-11.7 16.4 0 1.1 2 1.4 9.7 1.4 8.7 0 10.2-.3 16-3.1l6.3-3 6.2 3.3c5.9 3.1 6.9 3.3 15.6 3.2 5.1-.1 9.5-.4 9.8-.7 1-.9-1.6-4.8-9.3-14.4l-7.5-9.3 8.2-8.7c11.9-12.8 12-12-1.5-12.8-10.3-.7-11.9-.5-15.4 1.2-3.9 2-4.1 2-9.3.2-5.1-1.8-7.2-1.9-22.5-1.2zM637.7 218.7l-2.7.4 2.2 3.2c1.3 1.8 5.1 6.3 8.5 10 3.5 3.8 6.3 7.2 6.3 7.7s-3.1 4.6-6.8 9.2c-6.9 8.4-9.2 11.8-9.2 13.7 0 .7 3.4 1.1 9.3 1.1 8.4 0 9.6-.3 14.2-3 2.8-1.6 5.8-3 6.8-3s4.4 1.3 7.7 3c5.4 2.7 6.8 3 16 3 8.6 0 10-.2 10-1.7 0-1.9-6.4-10.6-12.8-17.5l-4.4-4.8 6-6.7c3.3-3.8 7.2-7.9 8.6-9.2 4.6-4.3 3.6-4.8-10.7-5.5-10.9-.6-14.1-.4-17.9.9-4.3 1.4-5.1 1.4-7.7 0-2.9-1.4-16-1.9-23.4-.8zM248.8 231.7c-6.9 6.8-9.8 10.4-9.8 12 0 1.7 2.6 5 8.5 10.8 12 12 14 11.7 28.1-3.4 3.2-3.5 6.1-6.7 6.2-7.2.5-1.4-18.6-20.6-21.1-21.3-1.6-.4-4.2 1.6-11.9 9.1zM292 261.7c-2.2.8-13.8 12.3-16.1 16-2.5 4-1.9 5.4 6 13.7 6.5 6.8 9.6 8.6 14.6 8.6 3.1 0 4.6-.9 10.2-6.3 3.6-3.4 7.4-7.4 8.4-8.9 1.8-2.5 1.9-3 .5-5.5-2.1-4.1-12.4-15.1-15.7-16.8-2.9-1.5-5.2-1.8-7.9-.8zM829.6 283.5c-3 1.1-10.1 7.5-29.3 26.7-13.9 13.9-25.3 25.7-25.3 26.3 0 .6 4 5 8.9 9.9l8.9 8.9 25.4-24.8c13.9-13.6 26.1-26 27.2-27.6 1.4-2.3 1.7-4.2 1.4-8-.9-9.2-8.7-14.4-17.2-11.4zM186 284.3c-6 3-8.8 12.3-5.6 18.5.8 1.5 12.9 13.8 26.9 27.5l25.5 24.7 9.3-8.8 9.3-8.9-2.1-2.9c-2.8-3.8-46.8-47.4-50.2-49.6-3-2.1-9.5-2.3-13.1-.5zM677.2 306.3c-3.4 4.5-7.2 9.7-8.5 11.4l-2.2 3.3h-10.6c-11.4 0-19.9.8-19.9 2 0 .3 4.1 5.3 9 11.1 6.3 7.3 8.9 11 8.6 12.4-.2 1.1-1.5 6.5-2.9 12-4.2 16.8-4.1 15.8-1.5 15 1.3-.4 7.2-2.7 13.3-5.1l11-4.3 5 3.8c6.9 5.2 18.5 13.1 19.2 13.1.3 0 .3-6.5-.1-14.4l-.7-14.3 10.2-6.4c14.6-9.1 14.9-9.3 14.9-10.1 0-.3-6.5-2.8-14.5-5.5l-14.5-4.7-1.6-5.6c-4.1-14.6-6.6-22-7.2-22-.4 0-3.5 3.8-7 8.3zM350.4 300.6c-1.5 5.4-10.2 24.9-11.5 25.5-.7.4-7.7 2-15.4 3.6l-14 2.9 3.5 3.3c1.9 1.8 7.2 6.2 11.8 9.8l8.3 6.5-.6 4.2c-.8 5.6-2.2 23-1.9 23.4.3.5 12-6 19.1-10.5 2.9-1.8 5.6-3.3 6-3.3.5 0 6.4 2.7 13.2 6.1 6.8 3.3 12.5 5.8 12.8 5.6.2-.3-.7-6.9-2.2-14.7-1.5-7.8-2.3-14.6-1.8-15 15.4-13.7 20.3-18.4 19.6-19-.4-.4-7.1-1.7-14.8-2.9-9.8-1.5-14.3-2.6-15-3.7-14.7-23.1-16.2-25-17.1-21.8zM275.5 385l-12 12-11.5-11.5c-6.3-6.3-12-11.5-12.5-11.5-.6 0-6.2 5.2-12.5 11.4l-11.4 11.5 4.6 4.8c2.5 2.6 7.8 8.1 11.9 12.1l7.3 7.3-11.9 11.9-12 12 12.1 12.1 12.1 12.1 11.8-11.6c6.5-6.4 12.1-11.6 12.3-11.6.2 0 5.6 5.2 12 11.5S287.7 469 288 469c.3 0 5.8-5.3 12.3-11.8l11.9-11.9-11.6-11.8C294.2 427 289 421.4 289 421c0-.3 5-5.5 11-11.5 6.1-6 11-11.4 11-12 0-.6-5.3-6.3-11.8-12.8L287.5 373l-12 12zM781.1 385.2c-5.3 5.1-19.7 19.3-32.1 31.5-12.4 12.2-23.7 23.1-25.1 24.2-1.5 1.1-3.2 3.4-3.9 5.1-1 2.5-1 3.4.4 5.4 1.9 3 4.6 3.9 7.7 2.7 1.3-.5 18-16.3 37.2-35.1 25.9-25.5 34.7-34.8 34.7-36.5 0-2.7-4.3-6.5-7.3-6.5-1.1 0-6 3.9-11.6 9.2zM729.4 378c-3 1.2-6.4 5.8-6.4 8.7 0 4 2.9 8.4 6.6 9.9 8 3.3 16.2-5.3 12.8-13.5-.9-2-2.6-3.7-4.8-4.6-4-1.7-5.2-1.7-8.2-.5zM612.1 382.4c-5.5 3-6.7 10.6-2.5 15.5 5.6 6.7 17.4 2.4 17.4-6.4 0-4.7-1.3-7.1-5-9-3.5-1.8-6.7-1.9-9.9-.1zM403.9 384.9c-2.3 2.4-2.9 3.8-2.9 7.3.1 4.6 1.2 6.8 4.7 8.6 7.7 4.1 16.5-2.5 14.9-11.2-1.4-7.6-11.1-10.3-16.7-4.7zM364.4 423.2l-13.6 13.4 4.9 5c2.6 2.7 10 9.9 16.3 15.9 6.4 6.1 24.1 23.1 39.5 38 15.4 14.8 33 31.7 39 37.5 6.1 5.8 22.6 21.7 36.7 35.3 14.1 13.6 25.9 24.7 26.3 24.7.4 0 7-6.2 14.8-13.8 7.8-7.5 26.6-25.6 41.7-40.2 15.1-14.6 42.3-40.9 60.5-58.5 18.1-17.6 35.6-34.5 38.8-37.4 3.1-3 5.7-5.9 5.7-6.5 0-1.7-25.6-26.9-26.8-26.5-.6.2-5.5 4.7-10.9 9.8-16.3 15.7-82.5 80.3-103.5 101l-19.7 19.4-4.8-4.1c-2.6-2.2-6.1-5.5-7.8-7.2-1.6-1.8-16-15.9-32-31.3-15.9-15.5-41.6-40.4-57-55.3-15.4-14.9-29.5-28.4-31.3-29.9l-3.3-2.8-13.5 13.5z"/><path d="M572.3 417.7c-3.5.7-6.3 5-6.3 9.7.1 6.1 3.6 9.6 9.9 9.6 3.7 0 8.7-4.1 9.4-7.7.6-3.1-1.2-8.1-3.4-9.9-1.7-1.4-6.7-2.3-9.6-1.7zM446.3 419.5c-3.4 2.4-4.7 7.6-2.9 11.8 2.7 6.5 10.6 7.9 15.7 2.8 3.8-3.9 3.9-8.7.3-13-2.1-2.6-3.3-3.1-6.8-3.1-2.3 0-5.1.7-6.3 1.5zM782.5 424.1c-8.5 1.9-15.4 10.8-15.5 19.7-.1 19.5 24.3 27.8 36.9 12.6 8.9-10.9 3.4-27.8-10.3-31.9-5.5-1.7-5.4-1.7-11.1-.4zm10 15.4c1.4 1.3 2.5 3.3 2.5 4.5 0 4.4-6 8.1-10.5 6.4-1.6-.6-4.5-5.4-4.5-7.4 0-2.1 4.9-6 7.5-6 1.4 0 3.7 1.1 5 2.5zM482 438.8c0 1.4 8.2 12.1 11.9 15.6 1.7 1.7 3.1 3.3 3.1 3.8 0 .4-3.4 5.5-7.5 11.1-4.1 5.7-7.5 10.9-7.5 11.5 0 .8 2.8 1.2 8.7 1.2 7.9 0 9.2-.3 15.7-3.6l7.1-3.5 6.8 3.5c6.4 3.4 7.4 3.6 16.3 3.6 5.4 0 9.4-.4 9.4-1 0-.5-3.6-5.7-8-11.6-4.4-5.8-8-10.9-8-11.4 0-.4.8-1.4 1.7-2.1 3.8-3.2 13.4-16.2 12.5-17.1-.6-.6-7.2-.7-15.8-.5-8.2.3-15.3.5-15.9.5-.5 0-7.6-.2-15.7-.5-9-.2-14.8 0-14.8.5zM324.8 470.7c-5.6 3.5-6.1 11.7-1 16.5 1.5 1.4 10.9 8 20.9 14.7 15.9 10.5 18.8 12.1 22.4 12.1 5.1 0 9.9-4.2 9.9-8.8 0-3.8-3.7-8.4-8.7-10.7-5.1-2.4-16.3-10-25.4-17.3-11.4-9-13.1-9.6-18.1-6.5zM691.3 471.7c-2.2 1.6-8.9 6.5-14.9 11-6 4.6-13.5 9.7-16.6 11.3-9.2 4.9-11.6 9.6-8.3 15.9 1.7 3.4 3.3 4.1 8.6 4.1 3.4 0 6.6-1.8 23.4-13.1 10.8-7.2 20.4-14.3 21.5-15.7 3.6-4.5 2-12.1-3.1-14.8-4-2-6-1.8-10.6 1.3z"/><path d="M202.6 485.2c-.3 1.3-.6 11-.6 21.6v19.3l5.3 2.3c2.8 1.3 44.1 15.3 91.7 31.2 89.5 29.8 100.7 33.7 113.1 39.9 19.5 9.8 28.5 17.3 69.1 57.4 17.1 16.8 31.6 30.6 32.3 30.6.7 0 16-14.4 34.1-32.1 36.3-35.4 40.2-39 49.6-45.7 12-8.6 29.9-16.1 57.8-24.2 18.2-5.3 23.9-10.1 24.8-20.9.9-11.6-7.7-20-20.3-19.9-7.6.1-43.5 11.9-60.1 19.8-21.7 10.2-32.3 18.4-63.4 49.1l-22.5 22.2-21.5-21c-33.2-32.5-45.7-42.1-68.5-52.8-14.4-6.8-25.8-10.8-115.5-40.6-66.5-22-82.5-27.7-92-32.5-6.3-3.3-11.8-5.9-12.1-5.9-.4 0-.9 1-1.3 2.2zM814.3 486.9c-8 4.8-17 8.3-61.8 24.1-46.4 16.4-48.6 17.3-52.9 22-6.5 7.2-6.7 17.4-.4 24.6 7.3 8.3 12.9 8.4 34 1 63-22.2 81.2-28.7 85.7-30.6l5.1-2.2v-17.7c0-18.9-.6-25.2-2.4-25-.6 0-3.9 1.8-7.3 3.8z"/><path d="M203 564.7c0 5.1 4.1 24.8 7.4 35.5l2.6 8.7 10.3 3.9c5.6 2.2 41.7 14.7 80.2 27.8 38.5 13 73.6 25.2 78 27.1 10.4 4.3 26.6 14.1 36.9 22.3 9.7 7.7 32.6 29.8 44.4 43 25.6 28.5 38.2 60.2 38.2 95.8 0 9.1.3 11.1 1.6 11.6.9.3 5.5.6 10.4.6s9.5-.3 10.4-.6c1.3-.5 1.6-2.4 1.6-10.9 0-31.2 9.5-58.3 30.2-85.9 8.9-11.8 43.2-45.6 56.3-55.4 19.5-14.6 29.4-18.8 102.5-43.7 60.6-20.6 97.4-33.7 99.3-35.4 1-1 4.5-13.7 7.3-27.1 2.2-10.8 3.1-21 1.8-21-.3 0-1.8.8-3.2 1.9-10.1 7.1-30.1 15-86.2 34.1-61.3 20.9-89 30.6-97.5 33.9-12 4.7-25.4 11.9-35.5 19-17.2 12.2-68.8 62.8-79.4 77.8-3.2 4.6-6.1 8.5-6.5 8.8-.5.2-2.4-1.9-4.3-4.8s-7.8-9.9-13-15.7c-9.6-10.6-47.8-48-59.8-58.4-13.1-11.4-31.5-22.4-49.7-29.7-4.3-1.7-41.1-14.3-81.8-27.9-71.6-24-85.5-29.1-95.9-35.8-2.8-1.8-5.4-3.2-5.8-3.2-.4 0-.8 1.7-.8 3.7z"/><path d="M227 651.6c0 6.1 14.6 33.7 29.1 54.9 28.9 42.3 72.8 80.2 119.4 103 25.1 12.3 41.2 18.2 65 24.1 18.4 4.5 23.6 5.1 25.4 3 1.8-2.2-.1-22.2-3.4-35.3-6.5-25.3-23-50.8-44.8-69-20.8-17.3-37.3-25.6-82.2-41.3-72.5-25.3-83.5-29.4-95-35.1-6.6-3.2-12.3-5.9-12.8-5.9-.4 0-.7.7-.7 1.6zM790.5 653.5c-3.3 1.9-10.7 5.5-16.5 7.9-9.9 4.2-20.4 8-79.5 28.9-57.4 20.4-70 27.2-93.6 50.7-24.5 24.3-36.5 48.3-40 80.2-.7 6.2-.9 12.6-.5 14.1.8 3.5 2.4 3.5 17.4.1 58-13 110.2-41.3 153.6-83.4 19.5-18.9 31.7-34 46.1-56.9 8.3-13.3 20.1-36.5 21.1-41.9.8-4.2-.4-4.1-8.1.3z"/></svg>