<svg width="18" height="18" viewBox="0 0 18 18" fill="none" xmlns="http://www.w3.org/2000/svg">
<path d="M9 12.75C9.41421 12.75 9.75 12.4142 9.75 12C9.75 11.5858 9.41421 11.25 9 11.25C8.58579 11.25 8.25 11.5858 8.25 12C8.25 12.4142 8.58579 12.75 9 12.75Z" stroke="#71717A" strokeWidth="1.5" strokeLinecap="round" strokeLinejoin="round"/>
<path d="M14.25 7.5H3.75C2.92157 7.5 2.25 8.17157 2.25 9V15C2.25 15.8284 2.92157 16.5 3.75 16.5H14.25C15.0784 16.5 15.75 15.8284 15.75 15V9C15.75 8.17157 15.0784 7.5 14.25 7.5Z" stroke="#71717A" strokeWidth="1.5" strokeLinecap="round" strokeLinejoin="round"/>
<path d="M5.25 7.5V5.25C5.25 4.25544 5.64509 3.30161 6.34835 2.59835C7.05161 1.89509 8.00544 1.5 9 1.5C9.99456 1.5 10.9484 1.89509 11.6517 2.59835C12.3549 3.30161 12.75 4.25544 12.75 5.25V7.5" stroke="#71717A" strokeWidth="1.5" strokeLinecap="round" strokeLinejoin="round"/>
</svg>
